<svg width="19" height="18" viewBox="0 0 19 18" fill="none" xmlns="http://www.w3.org/2000/svg">
<path fill-rule="evenodd" clip-rule="evenodd" d="M4.52564 3.69231C5.20695 3.01099 6.00366 2.47527 6.91575 2.08516C7.82783 1.69505 8.80036 1.5 9.83333 1.5C10.8663 1.5 11.8388 1.69505 12.7509 2.08516C13.663 2.47527 14.4597 3.01099 15.141 3.69231C15.8223 4.37363 16.3581 5.17033 16.7482 6.08242C17.1383 6.9945 17.3333 7.96703 17.3333 9C17.3333 10.033 17.1383 11.0055 16.7482 11.9176C16.3581 12.8297 15.8223 13.6236 15.141 14.2994C14.4597 14.9753 13.663 15.511 12.7509 15.9066C11.8388 16.3022 10.8663 16.5 9.83333 16.5C8.80036 16.5 7.82783 16.3022 6.91575 15.9066C6.00366 15.511 5.20695 14.9753 4.52564 14.2994C3.84432 13.6236 3.3086 12.8297 2.91849 11.9176C2.52838 11.0055 2.33333 10.033 2.33333 9C2.33333 7.96703 2.52838 6.9945 2.91849 6.08242C3.3086 5.17033 3.84432 4.37363 4.52564 3.69231ZM14.4734 4.35989C13.8745 3.76099 13.1767 3.29121 12.38 2.95055C11.5833 2.60989 10.7344 2.43956 9.83333 2.43956C8.93223 2.43956 8.08333 2.60989 7.28662 2.95055C6.48992 3.29121 5.79212 3.76099 5.19322 4.35989C4.59432 4.95879 4.12454 5.65659 3.78388 6.4533C3.44322 7.25 3.27289 8.0989 3.27289 9C3.27289 9.9011 3.44322 10.75 3.78388 11.5467C4.12454 12.3434 4.59432 13.0385 5.19322 13.6319C5.79212 14.2253 6.48992 14.6951 7.28662 15.0412C8.08333 15.3874 8.93223 15.5604 9.83333 15.5604C10.7344 15.5604 11.5833 15.3874 12.38 15.0412C13.1767 14.6951 13.8745 14.2253 14.4734 13.6319C15.0723 13.0385 15.5421 12.3434 15.8828 11.5467C16.2234 10.75 16.3938 9.9011 16.3938 9C16.3938 8.0989 16.2234 7.25 15.8828 6.4533C15.5421 5.65659 15.0723 4.95879 14.4734 4.35989ZM10.5751 9.74176C10.7839 9.53297 10.8883 9.28022 10.8883 8.98352C10.8883 8.86264 10.8663 8.75824 10.8223 8.67033L12.9817 6.51099L12.3223 5.85165L10.1795 7.97802C9.9597 7.93407 9.81684 7.91209 9.75091 7.91209C9.68498 7.91209 9.59706 7.93407 9.48717 7.97802L6.42124 4.91209L5.74542 5.57143L8.81135 8.63736C8.76739 8.85714 8.74542 8.97253 8.74542 8.98352C8.74542 9.28022 8.84981 9.53297 9.0586 9.74176C9.26739 9.95055 9.52014 10.0549 9.81684 10.0549C10.1135 10.0549 10.3663 9.95055 10.5751 9.74176Z" fill="white"/>
</svg>
