
<svg width="24" height="24" viewBox="0 0 24 24" fill="none" xmlns="http://www.w3.org/2000/svg">
<path d="M7.33333 11.9333C7.33333 14.5333 9.4 16.6 12 16.6C14.6 16.6 16.6667 14.5333 16.6667 11.9333C16.6667 9.33334 14.6 7.26667 12 7.26667C9.4 7.26667 7.33333 9.33334 7.33333 11.9333ZM15.3333 11.9333C15.3333 13.8 13.8667 15.2667 12 15.2667C10.1333 15.2667 8.66667 13.8 8.66667 11.9333C8.66667 10.0667 10.1333 8.60001 12 8.60001C13.8667 8.60001 15.3333 10.0667 15.3333 11.9333Z" fill="#E20074"/>
<path d="M9.8 2.13334L9.2 4L8.2 4.4L6.46667 3.46667C6.06667 3.26667 5.53333 3.33334 5.2 3.66667L3.6 5.26667C3.26667 5.6 3.2 6.13334 3.4 6.53334L4.33333 8.26667L3.93333 9.26667L2.06667 9.86667C1.66667 10 1.33333 10.4 1.33333 10.8667V13.1333C1.33333 13.6 1.66667 14 2.13333 14.0667L4 14.6667C4.06667 15.0667 4.2 15.4 4.4 15.7333L3.46667 17.4667C3.26667 17.8667 3.33333 18.4 3.66667 18.7333L5.26667 20.3333C5.6 20.6667 6.13333 20.7333 6.53333 20.5333L8.2 19.6667C8.53333 19.8 8.93333 19.9333 9.26667 20.0667L9.86667 21.9333C10 22.3333 10.4 22.6667 10.8667 22.6667H13.1333C13.6 22.6667 14 22.3333 14.1333 21.8667L14.7333 20L15.7333 19.6L17.4667 20.5333C17.8667 20.7333 18.4 20.6667 18.7333 20.3333L20.3333 18.7333C20.6667 18.4 20.7333 17.8667 20.5333 17.4667L19.6 15.7333L20 14.7333L21.9333 14.1333C22.3333 14 22.6667 13.6 22.6667 13.1333V10.8667C22.6667 10.4 22.3333 10 21.9333 9.86667L20 9.26667L19.6 8.26667L20.5333 6.53334C20.7333 6.13334 20.6667 5.6 20.3333 5.26667L18.7333 3.66667C18.4 3.33334 17.8667 3.26667 17.4667 3.46667L15.7333 4.4L14.7333 4L14.1333 2.06667C14 1.66667 13.6 1.33334 13.1333 1.33334H10.8667C10.4 1.33334 9.93333 1.66667 9.8 2.13334V2.13334ZM12.9333 2.66667L13.6667 5.06667L14 5.13334L15.4 5.73334L15.7333 5.93334L17.9333 4.73334L19.2667 6.06667L18.0667 8.26667L18.2667 8.6C18.5333 9.06667 18.7333 9.53334 18.8667 10L18.9333 10.3333L21.3333 11.0667V12.9333L18.9333 13.6667L18.8667 14L18.2667 15.4L18.0667 15.7333L19.2667 17.9333L17.9333 19.2667L15.7333 18.0667L15.4 18.2667C14.9333 18.5333 14.4667 18.7333 14 18.8667L13.6667 18.9333L12.9333 21.3333H11.0667L10.4 19.0667L10.0667 18.9333C9.53333 18.8 9.06667 18.6 8.6 18.3333L8.26667 18.1333L6.06667 19.2667L4.73333 17.9333L5.93333 15.8L5.73333 15.4667C5.46667 15 5.26667 14.5333 5.13333 14L5 13.6667L2.66667 12.9333V11.0667L5 10.3333L5.13333 10C5.26667 9.53334 5.46667 9.06667 5.73333 8.6L5.93333 8.26667L4.73333 6.06667L6.06667 4.73334L8.26667 5.93334L8.6 5.73334C9.06667 5.46667 9.53333 5.26667 10 5.13334L10.3333 5.06667L11.0667 2.66667H12.9333V2.66667Z" fill="#E20074"/>
</svg>

