<svg width="24" height="24" viewBox="0 0 24 24" fill="none" xmlns="http://www.w3.org/2000/svg">
<path fill-rule="evenodd" clip-rule="evenodd" d="M21.7778 11.5474L12 3L2.22217 11.5474C2.09033 11.6646 2.01709 11.811 2.00244 11.9868C1.98779 12.1626 2.03906 12.3127 2.15625 12.4373C2.27344 12.5618 2.41626 12.6313 2.58472 12.646C2.75317 12.6606 2.90332 12.6094 3.03516 12.4922L12 4.64795L20.9648 12.4922C21.0674 12.5947 21.1846 12.646 21.3164 12.646C21.5361 12.646 21.7119 12.5801 21.8438 12.4482C21.9609 12.3164 22.0122 12.1626 21.9976 11.9868C21.9829 11.811 21.9097 11.6646 21.7778 11.5474ZM18.2402 11.7451V20.4902H5.75977L5.73779 11.7231L4.50732 12.8218V21.1274C4.50732 21.2886 4.56592 21.4314 4.68311 21.5559C4.80029 21.6804 4.94678 21.7427 5.12256 21.7427H18.8774C19.0532 21.7427 19.1997 21.6804 19.3169 21.5559C19.4341 21.4314 19.4927 21.2886 19.4927 21.1274V12.8218L18.2402 11.7451Z" fill="#E20074"/>
</svg>
